<svg id="Layer_1" data-name="Layer 1" xmlns="http://www.w3.org/2000/svg" xmlns:xlink="http://www.w3.org/1999/xlink" viewBox="0 0 289.4525 48.013"><defs><style>.cls-1{fill:none;}.cls-2{clip-path:url(#clip-path);}.cls-3,.cls-4{fill:#fff;}.cls-4{stroke:#fff;stroke-miterlimit:10;}</style><clipPath id="clip-path"><path class="cls-1" d="M16.3974,1.1811A24,24,0,1,0,46.6392,16.59,24,24,0,0,0,16.3974,1.1811Zm9.2705,28.5317a6,6,0,1,1,3.8522-7.56A6,6,0,0,1,25.6679,29.7128Z"/></clipPath></defs><title>Camp Logo</title><g class="cls-2"><circle class="cls-3" cx="23.8138" cy="24.0065" r="19" transform="translate(-6.2529 8.5338) rotate(-18)"/><polygon class="cls-3" points="-7.175 119.381 28.311 25.468 54.803 -71.368 19.317 22.545 -7.175 119.381 -7.175 119.381"/><polygon class="cls-3" points="-57.317 82.951 26.593 27.832 104.944 -34.938 21.035 20.181 -57.317 82.951 -57.317 82.951"/><polygon class="cls-3" points="-76.469 24.007 23.814 28.735 124.097 24.006 23.814 19.278 -76.469 24.007 -76.469 24.007"/><polygon class="cls-3" points="-57.317 -34.938 21.035 27.832 104.944 82.951 26.593 20.181 -57.317 -34.938 -57.317 -34.938"/><polygon class="cls-3" points="-7.175 -71.368 19.317 25.468 54.803 119.381 28.311 22.545 -7.175 -71.368 -7.175 -71.368"/></g><g id="Text"><path class="cls-4" d="M56.5315,21.651h-1.5V8.4108h6.34a4.6047,4.6047,0,0,1,3.24,1.12,3.8619,3.8619,0,0,1,1.22,3.02,3.3545,3.3545,0,0,1-2.06,3.38,5.6994,5.6994,0,0,1-1.14.38l3.48,5.34h-1.78l-3.2-5.08h-4.6Zm0-6.5h4.58a3.132,3.132,0,0,0,2.92-1.32,2.4623,2.4623,0,0,0,.3-1.28,2.4732,2.4732,0,0,0-.86-1.99,3.4048,3.4048,0,0,0-2.28-.73h-4.66Z"/><path class="cls-4" d="M72.5915,11.4909a4.75,4.75,0,0,1,3.64,1.5,5.2057,5.2057,0,0,1,1.32,3.66,5.2057,5.2057,0,0,1-1.32,3.66,5.1663,5.1663,0,0,1-7.28,0,5.2075,5.2075,0,0,1-1.32-3.66,5.2075,5.2075,0,0,1,1.32-3.66A4.75,4.75,0,0,1,72.5915,11.4909Zm0,8.96a3.1663,3.1663,0,0,0,2.56-1.12,3.9986,3.9986,0,0,0,.9-2.68,3.9994,3.9994,0,0,0-.9-2.68,3.4866,3.4866,0,0,0-5.12,0,3.9969,3.9969,0,0,0-.9,2.68,3.9961,3.9961,0,0,0,.9,2.68A3.1656,3.1656,0,0,0,72.5915,20.4508Z"/><path class="cls-4" d="M81.4309,13.2711a4.0643,4.0643,0,0,1,3.58-1.78,4.4717,4.4717,0,0,1,3.5,1.5,5.254,5.254,0,0,1,1.34,3.66,5.2532,5.2532,0,0,1-1.34,3.66,4.5991,4.5991,0,0,1-3.61,1.5,3.9416,3.9416,0,0,1-3.47-1.76v1.6h-1.5v-14h1.5Zm3.38,7.18a3.3218,3.3218,0,0,0,2.6-1.12,3.8888,3.8888,0,0,0,.94-2.68,3.89,3.89,0,0,0-.94-2.68,3.3218,3.3218,0,0,0-2.6-1.12,3.1656,3.1656,0,0,0-2.56,1.12,3.9969,3.9969,0,0,0-.9,2.68,3.9961,3.9961,0,0,0,.9,2.68A3.1656,3.1656,0,0,0,84.8112,20.4508Z"/><path class="cls-4" d="M96.551,11.4909a4.7525,4.7525,0,0,1,3.64,1.5,5.2072,5.2072,0,0,1,1.3193,3.66,5.2072,5.2072,0,0,1-1.3193,3.66,5.1669,5.1669,0,0,1-7.28,0,5.2075,5.2075,0,0,1-1.32-3.66,5.2075,5.2075,0,0,1,1.32-3.66A4.75,4.75,0,0,1,96.551,11.4909Zm0,8.96a3.1656,3.1656,0,0,0,2.56-1.12,3.9983,3.9983,0,0,0,.8994-2.68,3.9992,3.9992,0,0,0-.8994-2.68,3.4866,3.4866,0,0,0-5.12,0,3.9969,3.9969,0,0,0-.9,2.68,3.9961,3.9961,0,0,0,.9,2.68A3.1656,3.1656,0,0,0,96.551,20.4508Z"/><path class="cls-4" d="M104.7907,21.651v-8.68h-2.04v-1.32h2.04v-3.58h1.5v3.58h2.3v1.32h-2.3v8.68Z"/><path class="cls-4" d="M112.1911,8.0109v1.96h-1.62v-1.96Zm-1.5605,3.64h1.5v10h-1.5Z"/><path class="cls-4" d="M119.7507,20.4508a2.8077,2.8077,0,0,0,1.7-.54,3.12,3.12,0,0,0,1.08-1.4h1.62a4.5672,4.5672,0,0,1-1.6807,2.38,5.07,5.07,0,0,1-3.04.92,4.6421,4.6421,0,0,1-3.58-1.5,5.2091,5.2091,0,0,1-1.34-3.66,5.21,5.21,0,0,1,1.34-3.66,4.6421,4.6421,0,0,1,3.58-1.5,5.0732,5.0732,0,0,1,3.04.92,4.5672,4.5672,0,0,1,1.6807,2.38h-1.62a3.123,3.123,0,0,0-1.08-1.4,2.8077,2.8077,0,0,0-1.7-.54,3.9729,3.9729,0,0,0-1.63.3,3.2727,3.2727,0,0,0-1.13.82,3.8413,3.8413,0,0,0-.98,2.68,3.84,3.84,0,0,0,.98,2.68A3.508,3.508,0,0,0,119.7507,20.4508Z"/><path class="cls-4" d="M132.2107,14.3312q-.1992-1.56-2.51-1.56t-2.31,1.44a1.01,1.01,0,0,0,.4893.91,4.5091,4.5091,0,0,0,1.23.51q.74.2,1.61.37a8.2681,8.2681,0,0,1,1.6094.48,3.42,3.42,0,0,1,1.23.85,2.1217,2.1217,0,0,1,.4893,1.48,2.5528,2.5528,0,0,1-1.1,2.23,5.1134,5.1134,0,0,1-2.9795.77,4.76,4.76,0,0,1-3.1807-1,3.0655,3.0655,0,0,1-1.16-2.3h1.5605a2.0838,2.0838,0,0,0,1.56,1.86,3.4976,3.4976,0,0,0,1.03.16,7.0507,7.0507,0,0,0,.95-.06,3.8585,3.8585,0,0,0,.8594-.22,1.3289,1.3289,0,0,0,.96-1.3,1.0759,1.0759,0,0,0-.4893-.95,4.3051,4.3051,0,0,0-1.23-.54q-.74-.21-1.6094-.38a8.7172,8.7172,0,0,1-1.61-.47,3.4433,3.4433,0,0,1-1.23-.82,2.0181,2.0181,0,0,1-.4893-1.44,2.4957,2.4957,0,0,1,.9893-2.11,4.8086,4.8086,0,0,1,2.9307-.75,4.4025,4.4025,0,0,1,2.8994.88,2.8894,2.8894,0,0,1,1.0205,1.96Z"/><path class="cls-4" d="M142.87,10.441a1.6486,1.6486,0,0,0-.51.73,2.7272,2.7272,0,0,0-.13.85,1.1444,1.1444,0,0,0,.39.83,3.16,3.16,0,0,0,1.03.64,10.372,10.372,0,0,0,1.46.46q.82.2007,1.67.41t1.67.48a6.1685,6.1685,0,0,1,1.46.69,2.7787,2.7787,0,0,1,1.42,2.46,3.2588,3.2588,0,0,1-1.39,2.84,6.5915,6.5915,0,0,1-3.85.98,6.6915,6.6915,0,0,1-4.24-1.16,4.0916,4.0916,0,0,1-1.48-2.96H141.93a2.4586,2.4586,0,0,0,1.3193,2.08,5.7288,5.7288,0,0,0,2.86.62q3.7207,0,3.72-2.34a1.4477,1.4477,0,0,0-.67-1.26,5.9613,5.9613,0,0,0-1.68-.76q-1.0107-.3-2.18-.56a13.6313,13.6313,0,0,1-2.1807-.67,4.9829,4.9829,0,0,1-1.68-1.08,2.4425,2.4425,0,0,1-.67-1.81,3.2585,3.2585,0,0,1,1.24-2.64,5.7925,5.7925,0,0,1,3.7393-1.02,5.895,5.895,0,0,1,3.9,1.16,3.4573,3.4573,0,0,1,1.34,2.62h-1.54a2.5526,2.5526,0,0,0-2.12-2.18,6.0788,6.0788,0,0,0-1.6895-.2,5.4291,5.4291,0,0,0-1.7.23A3.1438,3.1438,0,0,0,142.87,10.441Z"/><path class="cls-4" d="M160.95,21.651v-1.56a5.0176,5.0176,0,0,1-1.3193,1.22,3.2264,3.2264,0,0,1-1.78.5,4.7429,4.7429,0,0,1-1.72-.28,3.4718,3.4718,0,0,1-1.26-.84,4.3127,4.3127,0,0,1-1.24-3.22v-5.82h1.5v5.78a3.0574,3.0574,0,0,0,.78,2.2,2.6591,2.6591,0,0,0,2.02.82,2.9843,2.9843,0,0,0,2.14-.84,2.9421,2.9421,0,0,0,.88-2.2v-5.76h1.5v10Z"/><path class="cls-4" d="M166.95,13.171a3.3037,3.3037,0,0,1,3.04-1.68,3.4364,3.4364,0,0,1,1.8506.53,3.6135,3.6135,0,0,1,1.3291,1.49,3.8439,3.8439,0,0,1,2.12-1.8,3.6773,3.6773,0,0,1,1.3105-.22,3.4932,3.4932,0,0,1,1.3994.29,3.653,3.653,0,0,1,1.19.83,4.2287,4.2287,0,0,1,1.12,3v6.04h-1.5v-6a2.9852,2.9852,0,0,0-.7-2.04,2.3146,2.3146,0,0,0-1.78-.76,2.6129,2.6129,0,0,0-1.8994.74,2.7294,2.7294,0,0,0-.8,2.08v5.98h-1.5v-6a2.99,2.99,0,0,0-.7-2.04,2.316,2.316,0,0,0-1.78-.76,2.6167,2.6167,0,0,0-1.9.74,2.733,2.733,0,0,0-.8,2.08v5.98h-1.5v-10h1.5Z"/><path class="cls-4" d="M184.71,13.171a3.3037,3.3037,0,0,1,3.04-1.68,3.4364,3.4364,0,0,1,1.8506.53,3.6135,3.6135,0,0,1,1.3291,1.49,3.8439,3.8439,0,0,1,2.12-1.8,3.6773,3.6773,0,0,1,1.3105-.22,3.4932,3.4932,0,0,1,1.3994.29,3.653,3.653,0,0,1,1.19.83,4.2287,4.2287,0,0,1,1.12,3v6.04h-1.5v-6a2.9852,2.9852,0,0,0-.7-2.04,2.3146,2.3146,0,0,0-1.78-.76,2.6129,2.6129,0,0,0-1.8994.74,2.7294,2.7294,0,0,0-.8,2.08v5.98h-1.5v-6a2.99,2.99,0,0,0-.7-2.04,2.316,2.316,0,0,0-1.78-.76,2.6167,2.6167,0,0,0-1.9.74,2.733,2.733,0,0,0-.8,2.08v5.98h-1.5v-10h1.5Z"/><path class="cls-4" d="M205.4294,20.4508a3.0257,3.0257,0,0,0,2.9-1.68h1.64a4.827,4.827,0,0,1-1.6494,2.2,4.7524,4.7524,0,0,1-2.91.84,4.8406,4.8406,0,0,1-3.6807-1.5,5.119,5.119,0,0,1-1.38-3.66,5.2079,5.2079,0,0,1,1.32-3.66,5.1669,5.1669,0,0,1,7.28,0,5.2072,5.2072,0,0,1,1.3193,3.66v.6h-8.38a3.6276,3.6276,0,0,0,1.1006,2.28A3.38,3.38,0,0,0,205.4294,20.4508Zm-.12-7.6a3.3068,3.3068,0,0,0-2.3193.86,3.5489,3.5489,0,0,0-1.08,2.14h6.8a3.5541,3.5541,0,0,0-1.08-2.14A3.3109,3.3109,0,0,0,205.3093,12.8512Z"/><path class="cls-4" d="M217.79,11.4909v1.5h-.18a3.2059,3.2059,0,0,0-2.6406,1.3,4.6942,4.6942,0,0,0-.96,2.96v4.4h-1.5v-10h1.5v2.46a3.7928,3.7928,0,0,1,3.6807-2.62Z"/><path class="cls-4" d="M230.6892,20.3512a4.296,4.296,0,0,0,4.08-2.66h1.58a5.9351,5.9351,0,0,1-2.18,2.96,6.3888,6.3888,0,0,1-3.82,1.16,6.0514,6.0514,0,0,1-4.6992-1.98,6.9275,6.9275,0,0,1-1.7-4.8,6.9271,6.9271,0,0,1,1.7-4.8,6.05,6.05,0,0,1,4.6992-1.98,6.3918,6.3918,0,0,1,3.82,1.16,5.9364,5.9364,0,0,1,2.18,2.96h-1.58a4.2941,4.2941,0,0,0-4.08-2.66,5.9153,5.9153,0,0,0-2.3594.41,4.4738,4.4738,0,0,0-1.58,1.13,5.4682,5.4682,0,0,0-1.3,3.78,5.4686,5.4686,0,0,0,1.3,3.78A4.9761,4.9761,0,0,0,230.6892,20.3512Z"/><path class="cls-4" d="M246.4685,20.0509a4.0471,4.0471,0,0,1-3.58,1.76,4.5318,4.5318,0,0,1-3.52-1.5,5.2993,5.2993,0,0,1-1.32-3.66,5.3,5.3,0,0,1,1.32-3.66,4.6484,4.6484,0,0,1,3.62-1.5,3.9677,3.9677,0,0,1,3.4795,1.78v-1.62h1.5v10h-1.5Zm-3.38.4a3.1673,3.1673,0,0,0,2.5605-1.12,3.9983,3.9983,0,0,0,.8994-2.68,3.9992,3.9992,0,0,0-.8994-2.68,3.1673,3.1673,0,0,0-2.5605-1.12,3.3211,3.3211,0,0,0-2.6,1.12,3.89,3.89,0,0,0-.94,2.68,3.8888,3.8888,0,0,0,.94,2.68A3.3211,3.3211,0,0,0,243.0886,20.4508Z"/><path class="cls-4" d="M252.4685,13.171a3.3037,3.3037,0,0,1,3.04-1.68,3.4364,3.4364,0,0,1,1.8506.53,3.6135,3.6135,0,0,1,1.3291,1.49,3.8439,3.8439,0,0,1,2.12-1.8,3.6773,3.6773,0,0,1,1.3105-.22,3.4932,3.4932,0,0,1,1.3994.29,3.653,3.653,0,0,1,1.19.83,4.2287,4.2287,0,0,1,1.12,3v6.04h-1.5v-6a2.9852,2.9852,0,0,0-.7-2.04,2.3146,2.3146,0,0,0-1.78-.76,2.6129,2.6129,0,0,0-1.8994.74,2.7294,2.7294,0,0,0-.8,2.08v5.98h-1.5v-6a2.99,2.99,0,0,0-.7-2.04,2.316,2.316,0,0,0-1.78-.76,2.6167,2.6167,0,0,0-1.9.74,2.733,2.733,0,0,0-.8,2.08v5.98h-1.5v-10h1.5Z"/><path class="cls-4" d="M270.2282,13.2511a4.0471,4.0471,0,0,1,3.58-1.76,4.471,4.471,0,0,1,3.5,1.5,5.2514,5.2514,0,0,1,1.34,3.66,5.2506,5.2506,0,0,1-1.34,3.66,4.5877,4.5877,0,0,1-3.6,1.5,3.9683,3.9683,0,0,1-3.48-1.78v5.58h-1.5V11.651h1.5Zm3.38-.4a3.164,3.164,0,0,0-2.56,1.12,3.9947,3.9947,0,0,0-.9,2.68,3.9938,3.9938,0,0,0,.9,2.68,3.164,3.164,0,0,0,2.56,1.12,3.3245,3.3245,0,0,0,2.6006-1.12,3.8928,3.8928,0,0,0,.9395-2.68,3.8936,3.8936,0,0,0-.9395-2.68A3.3245,3.3245,0,0,0,273.6081,12.8512Z"/><path class="cls-4" d="M286.8884,14.3312q-.1992-1.56-2.51-1.56t-2.31,1.44a1.01,1.01,0,0,0,.4893.91,4.5091,4.5091,0,0,0,1.23.51q.74.2,1.61.37a8.2681,8.2681,0,0,1,1.6094.48,3.42,3.42,0,0,1,1.23.85,2.1217,2.1217,0,0,1,.4893,1.48,2.5528,2.5528,0,0,1-1.1,2.23,5.1134,5.1134,0,0,1-2.9795.77,4.76,4.76,0,0,1-3.1807-1,3.0655,3.0655,0,0,1-1.16-2.3h1.5605a2.0838,2.0838,0,0,0,1.56,1.86,3.4976,3.4976,0,0,0,1.03.16,7.0507,7.0507,0,0,0,.95-.06,3.8585,3.8585,0,0,0,.8594-.22,1.3289,1.3289,0,0,0,.96-1.3,1.0759,1.0759,0,0,0-.4893-.95,4.3051,4.3051,0,0,0-1.23-.54q-.74-.21-1.6094-.38a8.7172,8.7172,0,0,1-1.61-.47,3.4433,3.4433,0,0,1-1.23-.82,2.0181,2.0181,0,0,1-.4893-1.44,2.4957,2.4957,0,0,1,.9893-2.11,4.8086,4.8086,0,0,1,2.9307-.75,4.4025,4.4025,0,0,1,2.8994.88,2.8894,2.8894,0,0,1,1.0205,1.96Z"/><path class="cls-3" d="M62.5114,39.1823a4.049,4.049,0,0,1-3.58,1.76,4.5329,4.5329,0,0,1-3.52-1.5,5.7351,5.7351,0,0,1,0-7.32,4.6491,4.6491,0,0,1,3.62-1.5,3.9691,3.9691,0,0,1,3.48,1.78v-1.62h1.5v10h-1.5Zm-3.38.3994a3.1642,3.1642,0,0,0,2.56-1.12,4.4378,4.4378,0,0,0,0-5.3594,3.1642,3.1642,0,0,0-2.56-1.12,3.3209,3.3209,0,0,0-2.6,1.12,4.29,4.29,0,0,0,0,5.3594A3.3209,3.3209,0,0,0,59.1316,39.5817Z"/><path class="cls-3" d="M67.6911,40.7819v-8.68h-2.04v-1.32h2.04v-3.58h1.5v3.58h2.3v1.32h-2.3v8.68Z"/><path class="cls-3" d="M83.611,39.4821a4.2953,4.2953,0,0,0,4.08-2.66h1.58a5.936,5.936,0,0,1-2.18,2.96,6.3884,6.3884,0,0,1-3.82,1.16,6.0537,6.0537,0,0,1-4.7-1.98,6.9285,6.9285,0,0,1-1.7-4.8,6.93,6.93,0,0,1,1.7-4.8,6.0537,6.0537,0,0,1,4.7-1.98,6.395,6.395,0,0,1,3.82,1.16,5.94,5.94,0,0,1,2.18,2.96h-1.58a4.2991,4.2991,0,0,0-4.08-2.66,5.935,5.935,0,0,0-2.36.41,4.4755,4.4755,0,0,0-1.58,1.13,5.47,5.47,0,0,0-1.3,3.78,5.47,5.47,0,0,0,1.3,3.78A4.9781,4.9781,0,0,0,83.611,39.4821Z"/><path class="cls-3" d="M98.9895,39.1823a4.0456,4.0456,0,0,1-3.58,1.76,4.5315,4.5315,0,0,1-3.519-1.5,5.7351,5.7351,0,0,1,0-7.32,4.6487,4.6487,0,0,1,3.6206-1.5,3.966,3.966,0,0,1,3.4785,1.78v-1.62h1.5v10h-1.5Zm-3.3789.3994a3.1662,3.1662,0,0,0,2.5605-1.12,4.4454,4.4454,0,0,0,0-5.3594,3.1662,3.1662,0,0,0-2.5605-1.12,3.32,3.32,0,0,0-2.6,1.12,4.288,4.288,0,0,0,0,5.3594A3.32,3.32,0,0,0,95.6106,39.5817Z"/><path class="cls-3" d="M104.59,30.7819v1.56a5.0364,5.0364,0,0,1,1.32-1.22,3.2282,3.2282,0,0,1,1.78-.5,4.75,4.75,0,0,1,1.72.28,3.4946,3.4946,0,0,1,1.26.84,4.3146,4.3146,0,0,1,1.24,3.22v5.82h-1.5v-5.78a3.059,3.059,0,0,0-.78-2.2,2.6638,2.6638,0,0,0-2.02-.8193,2.9886,2.9886,0,0,0-2.1406.84,2.9421,2.9421,0,0,0-.88,2.2v5.76h-1.5v-10Z"/><path class="cls-3" d="M116.81,44.7418h-1.62l1.82-4.1-4.08-9.86h1.66l3.22,8.2,3.28-8.2h1.64Z"/><path class="cls-3" d="M128.2692,30.6217a4.7528,4.7528,0,0,1,3.6406,1.5,5.2064,5.2064,0,0,1,1.3193,3.66,5.2064,5.2064,0,0,1-1.3193,3.66,5.1669,5.1669,0,0,1-7.28,0,5.207,5.207,0,0,1-1.32-3.66,5.207,5.207,0,0,1,1.32-3.66A4.7507,4.7507,0,0,1,128.2692,30.6217Zm0,8.96a3.1662,3.1662,0,0,0,2.5605-1.12,4.4416,4.4416,0,0,0,0-5.3594,3.4856,3.4856,0,0,0-5.12,0,4.4378,4.4378,0,0,0,0,5.3594A3.1642,3.1642,0,0,0,128.2692,39.5817Z"/><path class="cls-3" d="M136.71,30.7819v1.56a5.0364,5.0364,0,0,1,1.32-1.22,3.2282,3.2282,0,0,1,1.78-.5,4.75,4.75,0,0,1,1.72.28,3.4946,3.4946,0,0,1,1.26.84,4.313,4.313,0,0,1,1.24,3.22v5.82h-1.5v-5.78a3.059,3.059,0,0,0-.78-2.2,2.6638,2.6638,0,0,0-2.02-.8193,2.9886,2.9886,0,0,0-2.1406.84,2.9421,2.9421,0,0,0-.88,2.2v5.76h-1.5v-10Z"/><path class="cls-3" d="M157.0095,39.4821a4.2941,4.2941,0,0,0,4.08-2.66h1.58a5.9351,5.9351,0,0,1-2.18,2.96,6.3888,6.3888,0,0,1-3.82,1.16,6.05,6.05,0,0,1-4.6992-1.98,6.9262,6.9262,0,0,1-1.7-4.8,6.9279,6.9279,0,0,1,1.7-4.8,6.05,6.05,0,0,1,4.6992-1.98,6.3955,6.3955,0,0,1,3.82,1.16,5.9394,5.9394,0,0,1,2.18,2.96h-1.58a4.2979,4.2979,0,0,0-4.08-2.66,5.9325,5.9325,0,0,0-2.3594.41,4.48,4.48,0,0,0-1.58,1.13,5.47,5.47,0,0,0-1.3,3.78,5.47,5.47,0,0,0,1.3,3.78A4.9777,4.9777,0,0,0,157.0095,39.4821Z"/><path class="cls-3" d="M169.87,30.6217v1.5h-.18a3.2068,3.2068,0,0,0-2.6406,1.3,4.6952,4.6952,0,0,0-.96,2.96v4.4h-1.5v-10h1.5v2.46a3.7928,3.7928,0,0,1,3.6807-2.62Z"/><path class="cls-3" d="M175.6892,39.5817a3.0257,3.0257,0,0,0,2.9-1.68h1.64a4.8284,4.8284,0,0,1-1.6494,2.2,4.7555,4.7555,0,0,1-2.91.84,4.8406,4.8406,0,0,1-3.6807-1.5,5.12,5.12,0,0,1-1.38-3.66,5.207,5.207,0,0,1,1.32-3.66,5.1669,5.1669,0,0,1,7.28,0,5.2064,5.2064,0,0,1,1.3193,3.66v.6h-8.38a3.6277,3.6277,0,0,0,1.1006,2.28A3.3822,3.3822,0,0,0,175.6892,39.5817Zm-.12-7.6a3.3108,3.3108,0,0,0-2.3193.8594,3.5515,3.5515,0,0,0-1.08,2.1406h6.8a3.5567,3.5567,0,0,0-1.08-2.1406A3.3149,3.3149,0,0,0,175.5691,31.9821Z"/><path class="cls-3" d="M188.2487,33.4616q-.1992-1.56-2.51-1.56t-2.31,1.4395a1.0093,1.0093,0,0,0,.4893.91,4.5088,4.5088,0,0,0,1.23.5107q.74.1992,1.61.3691a8.3023,8.3023,0,0,1,1.6094.48,3.4316,3.4316,0,0,1,1.23.85,2.1239,2.1239,0,0,1,.4893,1.48,2.5508,2.5508,0,0,1-1.1,2.2295,5.11,5.11,0,0,1-2.9795.7705,4.7575,4.7575,0,0,1-3.1807-1,3.0653,3.0653,0,0,1-1.16-2.3h1.5605a2.0817,2.0817,0,0,0,1.56,1.8594,3.4667,3.4667,0,0,0,1.03.16,7.0538,7.0538,0,0,0,.95-.06,3.8344,3.8344,0,0,0,.8594-.2207,1.3283,1.3283,0,0,0,.96-1.3,1.0778,1.0778,0,0,0-.4893-.95,4.3323,4.3323,0,0,0-1.23-.54q-.74-.2095-1.6094-.38a8.7171,8.7171,0,0,1-1.61-.47,3.4316,3.4316,0,0,1-1.23-.82,2.0169,2.0169,0,0,1-.4893-1.4395,2.4951,2.4951,0,0,1,.9893-2.11,4.8086,4.8086,0,0,1,2.9307-.75,4.4078,4.4078,0,0,1,2.8994.88,2.8936,2.8936,0,0,1,1.0205,1.96Z"/><path class="cls-3" d="M193.0886,40.7819v-8.68h-2.04v-1.32h2.04v-3.58h1.5v3.58h2.3v1.32h-2.3v8.68Z"/><path class="cls-3" d="M214.6687,40.7819h-1.66l-1.6191-3.84h-6.5605l-1.62,3.84h-1.66l5.62-13.24h1.88Zm-3.8594-5.22-2.7-6.46-2.7,6.46Z"/><path class="cls-3" d="M220.4685,39.5817a2.8077,2.8077,0,0,0,1.7-.54,3.119,3.119,0,0,0,1.08-1.3994h1.62a4.57,4.57,0,0,1-1.6807,2.38,5.07,5.07,0,0,1-3.04.92,4.6421,4.6421,0,0,1-3.58-1.5,5.6693,5.6693,0,0,1,0-7.32,4.6421,4.6421,0,0,1,3.58-1.5,5.07,5.07,0,0,1,3.04.92,4.57,4.57,0,0,1,1.6807,2.38h-1.62a3.119,3.119,0,0,0-1.08-1.3994,2.8077,2.8077,0,0,0-1.7-.54,3.9729,3.9729,0,0,0-1.63.3,3.2676,3.2676,0,0,0-1.13.82,4.1521,4.1521,0,0,0,0,5.3594A3.5067,3.5067,0,0,0,220.4685,39.5817Z"/><path class="cls-3" d="M234.528,39.1823a4.0479,4.0479,0,0,1-3.58,1.76,4.5318,4.5318,0,0,1-3.52-1.5,5.7335,5.7335,0,0,1,0-7.32,4.6484,4.6484,0,0,1,3.62-1.5,3.9677,3.9677,0,0,1,3.4795,1.78v-1.62h1.5v10h-1.5Zm-3.38.3994a3.1662,3.1662,0,0,0,2.5605-1.12,4.4416,4.4416,0,0,0,0-5.3594,3.1662,3.1662,0,0,0-2.5605-1.12,3.32,3.32,0,0,0-2.6,1.12,4.288,4.288,0,0,0,0,5.3594A3.32,3.32,0,0,0,231.1482,39.5817Z"/><path class="cls-3" d="M246.4284,39.1823a4.0479,4.0479,0,0,1-3.58,1.76,4.5318,4.5318,0,0,1-3.52-1.5,5.7335,5.7335,0,0,1,0-7.32,4.6484,4.6484,0,0,1,3.62-1.5,3.9677,3.9677,0,0,1,3.4795,1.78v-5.62h1.5v14h-1.5Zm-3.38.3994a3.1662,3.1662,0,0,0,2.5605-1.12,4.4416,4.4416,0,0,0,0-5.3594,3.1662,3.1662,0,0,0-2.5605-1.12,3.32,3.32,0,0,0-2.6,1.12,4.288,4.288,0,0,0,0,5.3594A3.32,3.32,0,0,0,243.0485,39.5817Z"/><path class="cls-3" d="M254.988,39.5817a3.0257,3.0257,0,0,0,2.9-1.68h1.64a4.8284,4.8284,0,0,1-1.6494,2.2,4.7555,4.7555,0,0,1-2.91.84,4.8406,4.8406,0,0,1-3.6807-1.5,5.12,5.12,0,0,1-1.38-3.66,5.207,5.207,0,0,1,1.32-3.66,5.1669,5.1669,0,0,1,7.28,0,5.2064,5.2064,0,0,1,1.3193,3.66v.6h-8.38a3.6277,3.6277,0,0,0,1.1006,2.28A3.3822,3.3822,0,0,0,254.988,39.5817Zm-.12-7.6a3.3108,3.3108,0,0,0-2.3193.8594,3.5515,3.5515,0,0,0-1.08,2.1406h6.8a3.5567,3.5567,0,0,0-1.08-2.1406A3.3149,3.3149,0,0,0,254.8679,31.9821Z"/><path class="cls-3" d="M263.1677,32.3014a3.3052,3.3052,0,0,1,3.04-1.68,3.4322,3.4322,0,0,1,1.8506.53,3.6089,3.6089,0,0,1,1.3291,1.49,3.8436,3.8436,0,0,1,2.12-1.8008,3.6774,3.6774,0,0,1,1.3105-.22,3.4849,3.4849,0,0,1,1.3994.29,3.6456,3.6456,0,0,1,1.19.83,4.2287,4.2287,0,0,1,1.12,3v6.04h-1.5v-6a2.9852,2.9852,0,0,0-.7-2.04,2.3129,2.3129,0,0,0-1.78-.76,2.6133,2.6133,0,0,0-1.8994.74,2.7272,2.7272,0,0,0-.8,2.0791v5.98h-1.5v-6a2.99,2.99,0,0,0-.7-2.04,2.3144,2.3144,0,0,0-1.78-.76,2.6171,2.6171,0,0,0-1.9.74,2.7307,2.7307,0,0,0-.8,2.0791v5.98h-1.5v-10h1.5Z"/><path class="cls-3" d="M281.4284,44.7418h-1.62l1.82-4.1-4.08-9.86h1.66l3.22,8.2,3.28-8.2h1.64Z"/></g></svg>