<?xml version="1.0"?>
<svg xmlns="http://www.w3.org/2000/svg" xmlns:xlink="http://www.w3.org/1999/xlink" version="1.1" viewBox="0 0 192 192" width="24px" height="24px"><g fill="none" fill-rule="nonzero" stroke="none" stroke-width="1" stroke-linecap="butt" stroke-linejoin="miter" stroke-miterlimit="10" stroke-dasharray="" stroke-dashoffset="0" font-family="none" font-weight="none" font-size="none" text-anchor="none" style="mix-blend-mode: normal"><path d="M0,192v-192h192v192z" fill="none"/><g fill="#ffffff"><path d="M96,16c-44.08802,0 -80,35.91198 -80,80c0,44.08802 35.91198,80 80,80c44.08802,0 80,-35.91198 80,-80c0,-44.08802 -35.91198,-80 -80,-80zM96,32c35.44098,0 64,28.55902 64,64c0,35.44098 -28.55902,64 -64,64c-35.44098,0 -64,-28.55902 -64,-64c0,-35.44098 28.55902,-64 64,-64zM88,56v32h-32v16h32v32h16v-32h32v-16h-32v-32z"/></g></g></svg>
